<?xml version="1.0" encoding="UTF-8" standalone="no"?>
<svg viewBox="0 0 50 50"
 xmlns="http://www.w3.org/2000/svg" xmlns:xlink="http://www.w3.org/1999/xlink"  version="1.2" baseProfile="tiny">
<title>Qt SVG Document</title>
<desc>Generated with Qt</desc>
<defs>
</defs>
<g fill="none" stroke="black" stroke-width="1" fill-rule="evenodd" stroke-linecap="square" stroke-linejoin="bevel" >

<g fill="#0a0b11" fill-opacity="1" stroke="none" transform="matrix(0.0548326,0,0,-0.0548323,-1.6926,50.0276)"
font-family="Noto Sans" font-size="10" font-weight="400" font-style="normal" 
>
<path vector-effect="none" fill-rule="evenodd" d="M486.806,0.502897 C738.607,0.502897 942.735,204.633 942.735,456.438 C942.735,708.245 738.607,912.374 486.806,912.374 C234.998,912.374 30.8685,708.245 30.8685,456.438 C30.8685,204.633 234.998,0.502897 486.806,0.502897 "/>
</g>

<g fill="#c3e88d" fill-opacity="1" stroke="none" transform="matrix(0.0548326,0,0,-0.0548323,-1.6926,50.0276)"
font-family="Noto Sans" font-size="10" font-weight="400" font-style="normal" 
>
<path vector-effect="none" fill-rule="evenodd" d="M481.71,78.6396 C686.3,78.6396 852.154,244.498 852.154,449.089 C852.154,653.681 686.3,819.536 481.71,819.536 C277.116,819.536 111.262,653.681 111.262,449.089 C111.262,244.498 277.116,78.6396 481.71,78.6396 "/>
</g>

<g fill="none" stroke="#000000" stroke-opacity="1" stroke-width="1" stroke-linecap="square" stroke-linejoin="bevel" transform="matrix(1,0,0,1,0,0)"
font-family="Noto Sans" font-size="10" font-weight="400" font-style="normal" 
>
</g>
</g>
</svg>
