<?xml version="1.0" encoding="UTF-8" standalone="no"?>
<svg viewBox="0 0 50 50"
 xmlns="http://www.w3.org/2000/svg" xmlns:xlink="http://www.w3.org/1999/xlink"  version="1.2" baseProfile="tiny">
<title>Qt SVG Document</title>
<desc>Generated with Qt</desc>
<defs>
</defs>
<g fill="none" stroke="black" stroke-width="1" fill-rule="evenodd" stroke-linecap="square" stroke-linejoin="bevel" >

<g fill="#0a0b11" fill-opacity="1" stroke="none" transform="matrix(0.0548323,0,0,-0.0548326,-5.75553,50.0905)"
font-family="Noto Sans" font-size="10" font-weight="400" font-style="normal" 
>
<path vector-effect="none" fill-rule="evenodd" d="M560.906,1.65015 C812.708,1.65015 1016.84,205.779 1016.84,457.583 C1016.84,709.388 812.708,913.517 560.906,913.517 C309.096,913.517 104.966,709.388 104.966,457.583 C104.966,205.779 309.096,1.65015 560.906,1.65015 "/>
</g>

<g fill="#c3e88d" fill-opacity="1" stroke="none" transform="matrix(0.0548323,0,0,-0.0548326,-5.75553,50.0905)"
font-family="Noto Sans" font-size="10" font-weight="400" font-style="normal" 
>
<path vector-effect="none" fill-rule="evenodd" d="M555.809,79.7865 C760.401,79.7865 926.255,245.644 926.255,450.234 C926.255,654.826 760.401,820.679 555.809,820.679 C351.214,820.679 185.36,654.826 185.36,450.234 C185.36,245.644 351.214,79.7865 555.809,79.7865 "/>
</g>

<g fill="#0a0b11" fill-opacity="1" stroke="none" transform="matrix(0.0548323,0,0,-0.0548326,-5.75553,50.0905)"
font-family="Noto Sans" font-size="10" font-weight="400" font-style="normal" 
>
<path vector-effect="none" fill-rule="evenodd" d="M445.662,660.736 L698.767,660.736 C732.469,660.736 760.047,633.159 760.047,599.454 L760.047,346.353 L445.662,660.736 M665.732,247.536 L411.628,247.536 C377.922,247.536 350.348,275.109 350.348,308.814 L350.348,562.917 L665.732,247.536"/>
</g>

<g fill="none" stroke="#000000" stroke-opacity="1" stroke-width="1" stroke-linecap="square" stroke-linejoin="bevel" transform="matrix(1,0,0,1,0,0)"
font-family="Noto Sans" font-size="10" font-weight="400" font-style="normal" 
>
</g>
</g>
</svg>
