<?xml version="1.0" encoding="UTF-8" standalone="no"?>
<svg viewBox="0 0 50 50"
 xmlns="http://www.w3.org/2000/svg" xmlns:xlink="http://www.w3.org/1999/xlink"  version="1.2" baseProfile="tiny">
<title>Qt SVG Document</title>
<desc>Generated with Qt</desc>
<defs>
</defs>
<g fill="none" stroke="black" stroke-width="1" fill-rule="evenodd" stroke-linecap="square" stroke-linejoin="bevel" >

<g fill="#0a0b11" fill-opacity="1" stroke="none" transform="matrix(0.0548323,0,0,-0.0548323,-8.04361,49.8508)"
font-family="Noto Sans" font-size="10" font-weight="400" font-style="normal" 
>
<path vector-effect="none" fill-rule="evenodd" d="M602.635,-2.72068 C854.437,-2.72068 1058.57,201.409 1058.57,453.214 C1058.57,705.021 854.437,909.15 602.635,909.15 C350.825,909.15 146.695,705.021 146.695,453.214 C146.695,201.409 350.825,-2.72068 602.635,-2.72068 "/>
</g>

<g fill="#c3e88d" fill-opacity="1" stroke="none" transform="matrix(0.0548323,0,0,-0.0548323,-8.04361,49.8508)"
font-family="Noto Sans" font-size="10" font-weight="400" font-style="normal" 
>
<path vector-effect="none" fill-rule="evenodd" d="M597.538,75.416 C802.13,75.416 967.984,241.274 967.984,445.865 C967.984,650.458 802.129,816.312 597.538,816.312 C392.943,816.312 227.088,650.458 227.088,445.865 C227.088,241.274 392.943,75.416 597.538,75.416 "/>
</g>

<g fill="#0a0b11" fill-opacity="1" stroke="none" transform="matrix(0.0548323,0,0,-0.0548323,-8.04361,49.8508)"
font-family="Noto Sans" font-size="10" font-weight="400" font-style="normal" 
>
<path vector-effect="none" fill-rule="evenodd" d="M487.391,656.368 L740.496,656.368 C774.198,656.368 801.775,628.791 801.775,595.086 L801.775,341.983 L487.391,656.368 M707.46,243.166 L453.357,243.166 C419.651,243.166 392.077,270.74 392.077,304.445 L392.077,558.549 L707.46,243.166"/>
</g>

<g fill="none" stroke="#000000" stroke-opacity="1" stroke-width="1" stroke-linecap="square" stroke-linejoin="bevel" transform="matrix(1,0,0,1,0,0)"
font-family="Noto Sans" font-size="10" font-weight="400" font-style="normal" 
>
</g>
</g>
</svg>
