<?xml version="1.0" encoding="UTF-8" standalone="no"?>
<svg viewBox="0 0 50 50"
 xmlns="http://www.w3.org/2000/svg" xmlns:xlink="http://www.w3.org/1999/xlink"  version="1.2" baseProfile="tiny">
<title>Qt SVG Document</title>
<desc>Generated with Qt</desc>
<defs>
</defs>
<g fill="none" stroke="black" stroke-width="1" fill-rule="evenodd" stroke-linecap="square" stroke-linejoin="bevel" >

<g fill="#0a0b11" fill-opacity="1" stroke="none" transform="matrix(0.0548323,0,0,-0.0548323,-0.624539,48.9239)"
font-family="Noto Sans" font-size="10" font-weight="400" font-style="normal" 
>
<path vector-effect="none" fill-rule="evenodd" d="M467.325,-19.6254 C719.132,-19.6254 923.261,184.505 923.261,436.312 C923.261,688.115 719.132,892.246 467.325,892.246 C215.52,892.246 11.39,688.115 11.39,436.312 C11.39,184.505 215.52,-19.6254 467.325,-19.6254 "/>
</g>

<g fill="#ffcb6b" fill-opacity="1" stroke="none" transform="matrix(0.0548323,0,0,-0.0548323,-0.624539,48.9239)"
font-family="Noto Sans" font-size="10" font-weight="400" font-style="normal" 
>
<path vector-effect="none" fill-rule="evenodd" d="M467.776,59.9277 C672.369,59.9277 838.222,225.783 838.222,430.379 C838.222,634.971 672.369,800.827 467.776,800.827 C263.185,800.827 97.3267,634.971 97.3267,430.379 C97.3267,225.783 263.185,59.9277 467.776,59.9277 "/>
</g>

<g fill="none" stroke="#000000" stroke-opacity="1" stroke-width="1" stroke-linecap="square" stroke-linejoin="bevel" transform="matrix(1,0,0,1,0,0)"
font-family="Noto Sans" font-size="10" font-weight="400" font-style="normal" 
>
</g>
</g>
</svg>
