<?xml version="1.0" encoding="UTF-8" standalone="no"?>
<svg viewBox="0 0 50 50"
 xmlns="http://www.w3.org/2000/svg" xmlns:xlink="http://www.w3.org/1999/xlink"  version="1.2" baseProfile="tiny">
<title>Qt SVG Document</title>
<desc>Generated with Qt</desc>
<defs>
</defs>
<g fill="none" stroke="black" stroke-width="1" fill-rule="evenodd" stroke-linecap="square" stroke-linejoin="bevel" >

<g fill="#0a0b11" fill-opacity="1" stroke="none" transform="matrix(0.0548323,0,0,-0.0548325,-0.0246811,48.9938)"
font-family="Noto Sans" font-size="10" font-weight="400" font-style="normal" 
>
<path vector-effect="none" fill-rule="evenodd" d="M456.39,-18.3504 C708.192,-18.3504 912.321,185.779 912.321,437.583 C912.321,689.388 708.192,893.517 456.39,893.517 C204.58,893.517 0.45012,689.388 0.45012,437.583 C0.45012,185.779 204.58,-18.3504 456.39,-18.3504 "/>
</g>

<g fill="#3b4252" fill-opacity="1" stroke="none" transform="matrix(0.0548323,0,0,-0.0548325,-0.0246811,48.9938)"
font-family="Noto Sans" font-size="10" font-weight="400" font-style="normal" 
>
<path vector-effect="none" fill-rule="evenodd" d="M451.979,64.8275 C656.567,64.8275 822.423,230.686 822.423,435.277 C822.423,639.87 656.567,805.724 451.979,805.724 C247.383,805.724 81.5274,639.87 81.5274,435.277 C81.5274,230.686 247.383,64.8275 451.979,64.8275 "/>
</g>

<g fill="none" stroke="#000000" stroke-opacity="1" stroke-width="1" stroke-linecap="square" stroke-linejoin="bevel" transform="matrix(1,0,0,1,0,0)"
font-family="Noto Sans" font-size="10" font-weight="400" font-style="normal" 
>
</g>
</g>
</svg>
