<?xml version="1.0" encoding="UTF-8" standalone="no"?>
<svg viewBox="0 0 50 50"
 xmlns="http://www.w3.org/2000/svg" xmlns:xlink="http://www.w3.org/1999/xlink"  version="1.2" baseProfile="tiny">
<title>Qt SVG Document</title>
<desc>Generated with Qt</desc>
<defs>
</defs>
<g fill="none" stroke="black" stroke-width="1" fill-rule="evenodd" stroke-linecap="square" stroke-linejoin="bevel" >

<g fill="#0a0b11" fill-opacity="1" stroke="none" transform="matrix(0.0548323,0,0,-0.0548325,9.14676,50.4539)"
font-family="Noto Sans" font-size="10" font-weight="400" font-style="normal" 
>
<path vector-effect="none" fill-rule="evenodd" d="M289.126,8.27877 C540.928,8.27877 745.058,212.408 745.058,464.212 C745.058,716.017 540.928,920.146 289.126,920.146 C37.3167,920.146 -166.813,716.017 -166.813,464.212 C-166.813,212.408 37.3167,8.27877 289.126,8.27877 "/>
</g>

<g fill="#3b4252" fill-opacity="1" stroke="none" transform="matrix(0.0548323,0,0,-0.0548325,9.14676,50.4539)"
font-family="Noto Sans" font-size="10" font-weight="400" font-style="normal" 
>
<path vector-effect="none" fill-rule="evenodd" d="M284.715,91.4566 C489.304,91.4566 655.159,257.315 655.159,461.906 C655.159,666.499 489.304,832.354 284.715,832.354 C80.1193,832.354 -85.7361,666.499 -85.7361,461.906 C-85.7361,257.315 80.1193,91.4566 284.715,91.4566 "/>
</g>

<g fill="none" stroke="#000000" stroke-opacity="1" stroke-width="1" stroke-linecap="square" stroke-linejoin="bevel" transform="matrix(1,0,0,1,0,0)"
font-family="Noto Sans" font-size="10" font-weight="400" font-style="normal" 
>
</g>
</g>
</svg>
