<?xml version="1.0" encoding="UTF-8" standalone="no"?>
<svg viewBox="0 0 50 50"
 xmlns="http://www.w3.org/2000/svg" xmlns:xlink="http://www.w3.org/1999/xlink"  version="1.2" baseProfile="tiny">
<title>Qt SVG Document</title>
<desc>Generated with Qt</desc>
<defs>
</defs>
<g fill="none" stroke="black" stroke-width="1" fill-rule="evenodd" stroke-linecap="square" stroke-linejoin="bevel" >

<g fill="#0a0b11" fill-opacity="1" stroke="none" transform="matrix(0.0548326,0,0,-0.0548323,-2.81266,50.6176)"
font-family="Noto Sans" font-size="10" font-weight="400" font-style="normal" 
>
<path vector-effect="none" fill-rule="evenodd" d="M507.233,11.2628 C759.034,11.2628 963.162,215.393 963.162,467.198 C963.162,719.005 759.034,923.134 507.233,923.134 C255.425,923.134 51.2954,719.005 51.2954,467.198 C51.2954,215.393 255.425,11.2628 507.233,11.2628 "/>
</g>

<g fill="#ff5370" fill-opacity="1" stroke="none" transform="matrix(0.0548326,0,0,-0.0548323,-2.81266,50.6176)"
font-family="Noto Sans" font-size="10" font-weight="400" font-style="normal" 
>
<path vector-effect="none" fill-rule="evenodd" d="M502.822,94.441 C707.41,94.441 873.264,260.3 873.264,464.892 C873.264,669.486 707.41,835.341 502.822,835.341 C298.227,835.341 132.372,669.486 132.372,464.892 C132.372,260.3 298.227,94.441 502.822,94.441 "/>
</g>

<g fill="none" stroke="#000000" stroke-opacity="1" stroke-width="1" stroke-linecap="square" stroke-linejoin="bevel" transform="matrix(1,0,0,1,0,0)"
font-family="Noto Sans" font-size="10" font-weight="400" font-style="normal" 
>
</g>
</g>
</svg>
