<?xml version="1.0" encoding="UTF-8" standalone="no"?>
<svg viewBox="0 0 50 50"
 xmlns="http://www.w3.org/2000/svg" xmlns:xlink="http://www.w3.org/1999/xlink"  version="1.2" baseProfile="tiny">
<title>Qt SVG Document</title>
<desc>Generated with Qt</desc>
<defs>
</defs>
<g fill="none" stroke="black" stroke-width="1" fill-rule="evenodd" stroke-linecap="square" stroke-linejoin="bevel" >

<g fill="#0a0b11" fill-opacity="1" stroke="none" transform="matrix(0.054832,0,0,-0.0548326,-1.46489,50.5174)"
font-family="Noto Sans" font-size="10" font-weight="400" font-style="normal" 
>
<path vector-effect="none" fill-rule="evenodd" d="M482.653,9.43648 C734.461,9.43648 938.591,213.566 938.591,465.372 C938.591,717.174 734.461,921.303 482.653,921.303 C230.847,921.303 26.7159,717.174 26.7159,465.372 C26.7159,213.566 230.847,9.43648 482.653,9.43648 "/>
</g>

<g fill="#ffcb6b" fill-opacity="1" stroke="none" transform="matrix(0.054832,0,0,-0.0548326,-1.46489,50.5174)"
font-family="Noto Sans" font-size="10" font-weight="400" font-style="normal" 
>
<path vector-effect="none" fill-rule="evenodd" d="M483.104,88.9892 C687.697,88.9892 853.552,254.844 853.552,459.439 C853.552,664.03 687.697,829.884 483.104,829.884 C278.512,829.884 112.653,664.03 112.653,459.439 C112.653,254.844 278.512,88.9892 483.104,88.9892 "/>
</g>

<g fill="#0a0b11" fill-opacity="1" stroke="none" transform="matrix(0.054832,0,0,-0.0548326,-1.46489,50.5174)"
font-family="Noto Sans" font-size="10" font-weight="400" font-style="normal" 
>
<path vector-effect="none" fill-rule="evenodd" d="M235.562,487.686 L708.295,487.686 C726.592,487.686 741.56,472.723 741.56,454.422 L741.56,453.545 C741.56,435.244 726.592,420.28 708.295,420.28 L235.562,420.28 C217.264,420.28 202.297,435.244 202.297,453.545 L202.297,454.422 C202.297,472.723 217.264,487.686 235.562,487.686 "/>
</g>

<g fill="none" stroke="#000000" stroke-opacity="1" stroke-width="1" stroke-linecap="square" stroke-linejoin="bevel" transform="matrix(1,0,0,1,0,0)"
font-family="Noto Sans" font-size="10" font-weight="400" font-style="normal" 
>
</g>
</g>
</svg>
