<?xml version="1.0" encoding="UTF-8" standalone="no"?>
<svg viewBox="0 0 50 50"
 xmlns="http://www.w3.org/2000/svg" xmlns:xlink="http://www.w3.org/1999/xlink"  version="1.2" baseProfile="tiny">
<title>Qt SVG Document</title>
<desc>Generated with Qt</desc>
<defs>
</defs>
<g fill="none" stroke="black" stroke-width="1" fill-rule="evenodd" stroke-linecap="square" stroke-linejoin="bevel" >

<g fill="#0a0b11" fill-opacity="1" stroke="none" transform="matrix(0.0548323,0,0,-0.0548325,-3.56137,49.4247)"
font-family="Noto Sans" font-size="10" font-weight="400" font-style="normal" 
>
<path vector-effect="none" fill-rule="evenodd" d="M520.886,-10.4927 C772.692,-10.4927 976.822,193.637 976.822,445.443 C976.822,697.245 772.692,901.375 520.886,901.375 C269.08,901.375 64.9502,697.245 64.9502,445.443 C64.9502,193.637 269.08,-10.4927 520.886,-10.4927 "/>
</g>

<g fill="#ffcb6b" fill-opacity="1" stroke="none" transform="matrix(0.0548323,0,0,-0.0548325,-3.56137,49.4247)"
font-family="Noto Sans" font-size="10" font-weight="400" font-style="normal" 
>
<path vector-effect="none" fill-rule="evenodd" d="M521.337,69.0601 C725.929,69.0601 891.782,234.915 891.782,439.51 C891.782,644.101 725.929,809.955 521.337,809.955 C316.745,809.955 150.887,644.101 150.887,439.51 C150.887,234.915 316.745,69.0601 521.337,69.0601 "/>
</g>

<g fill="#0a0b11" fill-opacity="1" stroke="none" transform="matrix(0.0548323,0,0,-0.0548325,-3.56137,49.4247)"
font-family="Noto Sans" font-size="10" font-weight="400" font-style="normal" 
>
<path vector-effect="none" fill-rule="evenodd" d="M273.795,467.757 L746.526,467.757 C764.824,467.757 779.791,452.794 779.791,434.493 L779.791,433.616 C779.791,415.315 764.824,400.351 746.526,400.351 L273.795,400.351 C255.497,400.351 240.531,415.315 240.531,433.616 L240.531,434.493 C240.531,452.794 255.497,467.757 273.795,467.757 "/>
</g>

<g fill="none" stroke="#000000" stroke-opacity="1" stroke-width="1" stroke-linecap="square" stroke-linejoin="bevel" transform="matrix(1,0,0,1,0,0)"
font-family="Noto Sans" font-size="10" font-weight="400" font-style="normal" 
>
</g>
</g>
</svg>
